<?xml version="1.0" encoding="UTF-8" standalone="no"?>
<svg
   xmlns:dc="http://purl.org/dc/elements/1.1/"
   xmlns:cc="http://creativecommons.org/ns#"
   xmlns:rdf="http://www.w3.org/1999/02/22-rdf-syntax-ns#"
   xmlns:svg="http://www.w3.org/2000/svg"
   xmlns="http://www.w3.org/2000/svg"
   xmlns:sodipodi="http://sodipodi.sourceforge.net/DTD/sodipodi-0.dtd"
   xmlns:inkscape="http://www.inkscape.org/namespaces/inkscape"
   height="512px"
   viewBox="0 -1 512 512"
   width="512px"
   version="1.1"
   id="svg22"
   sodipodi:docname="cactus-stump.svg"
   inkscape:version="0.92.2 5c3e80d, 2017-08-06">
  <metadata
     id="metadata28">
    <rdf:RDF>
      <cc:Work
         rdf:about="">
        <dc:format>image/svg+xml</dc:format>
        <dc:type
           rdf:resource="http://purl.org/dc/dcmitype/StillImage" />
        <dc:title></dc:title>
      </cc:Work>
    </rdf:RDF>
  </metadata>
  <defs
     id="defs26" />
  <sodipodi:namedview
     pagecolor="#ffffff"
     bordercolor="#666666"
     borderopacity="1"
     objecttolerance="10"
     gridtolerance="10"
     guidetolerance="10"
     inkscape:pageopacity="0"
     inkscape:pageshadow="2"
     inkscape:window-width="1208"
     inkscape:window-height="753"
     id="namedview24"
     showgrid="false"
     inkscape:zoom="1.0546875"
     inkscape:cx="256"
     inkscape:cy="180.14815"
     inkscape:window-x="0"
     inkscape:window-y="0"
     inkscape:window-maximized="0"
     inkscape:current-layer="svg22" />
  <path
     d="m 464.0625,479.87109 h -67.19922 v -17.76953 h 24.78125 c 8.55469,0 15.49219,-6.9375 15.49219,-15.49219 v -21.76171 c 0,-8.33985 -6.41016,-15.51563 -14.74219,-15.91016 -8.89453,-0.41797 -16.23828,6.66797 -16.23828,15.47266 v 6.71093 h -9.29297 v -73.39453 c 0,-8.33984 -6.41015,-15.51562 -14.73828,-15.91015 -8.89844,-0.41797 -16.23828,6.67187 -16.23828,15.47265 v 41.99219 h -10.32813 v -16.08203 c 0,-8.33984 -6.41015,-15.51563 -14.73828,-15.91016 -8.89453,-0.41797 -16.23828,6.66797 -16.23828,15.47266 v 32.01172 c 0,8.55469 6.93359,15.48828 15.48828,15.48828 h 25.81641 v 49.60937 c -148.48352,-1.29867 -333.655074,0.057 -333.655074,0.057 -11.844197,-0.57548 -16.790726,15.74125 -16.790726,15.74125 0,0 0.285389,15.18225 11.230955,15.18225 H 464.5 c 8.80469,0 15.89062,-7.34375 15.47266,-16.23828 -0.39454,-8.33203 -7.57032,-14.74219 -15.91016,-14.74219 z"
     id="path2"
     inkscape:connector-curvature="0"
     style="fill:#404940"
     sodipodi:nodetypes="sccssscsccscsccscsssccccsscs" />
  <path
     d="m398.769531 167.792969c30.085938 0 54.5625-24.476563 54.5625-54.5625 0-30.085938-24.476562-54.5625-54.5625-54.5625-30.085937 0-54.5625 24.476562-54.5625 54.5625 0 30.085937 24.476563 54.5625 54.5625 54.5625zm0-78.148438c13.003907 0 23.585938 10.582031 23.585938 23.585938 0 13.003906-10.582031 23.585937-23.585938 23.585937-13.003906 0-23.585937-10.582031-23.585937-23.585937 0-13.003907 10.582031-23.585938 23.585937-23.585938zm0 0"
     fill="#404940"
     id="path4" />
  <path
     d="m496.511719 97.742188h-12.378907c-8.554687 0-15.488281 6.933593-15.488281 15.488281 0 8.554687 6.933594 15.488281 15.488281 15.488281h12.378907c8.554687 0 15.488281-6.933594 15.488281-15.488281 0-8.554688-6.933594-15.488281-15.488281-15.488281zm0 0"
     fill="#404940"
     id="path6" />
  <path
     d="m301.027344 128.71875h12.378906c8.554688 0 15.488281-6.933594 15.488281-15.488281 0-8.554688-6.933593-15.488281-15.488281-15.488281h-12.378906c-8.554688 0-15.488282 6.933593-15.488282 15.488281 0 8.554687 6.933594 15.488281 15.488282 15.488281zm0 0"
     fill="#404940"
     id="path8" />
  <path
     d="m470.082031 63.820312 8.753907-8.75c6.046874-6.050781 6.046874-15.855468 0-21.90625-6.046876-6.046874-15.855469-6.046874-21.90625 0l-8.75 8.753907c-6.050782 6.046875-6.050782 15.855469 0 21.902343 6.046874 6.050782 15.855468 6.050782 21.902343 0zm0 0"
     fill="#404940"
     id="path10" />
  <path
     d="m327.457031 162.636719-8.753906 8.753906c-6.046875 6.050781-6.050781 15.855469 0 21.90625 6.046875 6.046875 15.855469 6.046875 21.90625 0l8.753906-8.753906c6.046875-6.046875 6.046875-15.855469 0-21.90625-6.046875-6.046875-15.855469-6.046875-21.90625 0zm0 0"
     fill="#404940"
     id="path12" />
  <path
     d="m398.769531 43.355469c8.554688 0 15.488281-6.933594 15.488281-15.488281v-12.378907c0-8.554687-6.933593-15.488281-15.488281-15.488281-8.554687 0-15.488281 6.933594-15.488281 15.488281v12.378907c0 8.554687 6.933594 15.488281 15.488281 15.488281zm0 0"
     fill="#404940"
     id="path14" />
  <path
     d="m383.28125 198.59375v12.378906c0 8.550782 6.933594 15.488282 15.488281 15.488282 8.554688 0 15.488281-6.9375 15.488281-15.488282v-12.378906c0-8.554688-6.933593-15.488281-15.488281-15.488281-8.554687 0-15.488281 6.933593-15.488281 15.488281zm0 0"
     fill="#404940"
     id="path16" />
  <path
     d="m470.082031 162.636719c-6.046875-6.046875-15.855469-6.046875-21.902343 0-6.050782 6.050781-6.050782 15.859375 0 21.90625l8.75 8.753906c6.050781 6.046875 15.855468 6.046875 21.90625 0 6.046874-6.050781 6.046874-15.855469 0-21.90625zm0 0"
     fill="#404940"
     id="path18" />
  <path
     d="m327.457031 63.820312c6.046875 6.050782 15.855469 6.050782 21.90625 0 6.046875-6.046874 6.046875-15.855468 0-21.902343l-8.753906-8.753907c-6.050781-6.046874-15.855469-6.046874-21.90625 0-6.050781 6.050782-6.046875 15.855469 0 21.90625zm0 0"
     fill="#404940"
     id="path20" />
  <g
     id="g214"
     transform="matrix(0.39661228,0,0,0.39661228,58.495522,269.9646)">
    <g
       id="g155">
      <g
         id="g153">
        <path
           id="path147"
           d="m 516.347,430.702 c 0,0 -0.007,-259.679 -0.007,-260.779 0,-69.217 -92.397,-123.435 -210.351,-123.435 -117.954,0 -210.351,54.219 -210.351,123.435 0,1.1 0.007,92.316 0.007,92.316 l -75.72,-37.861 -2.213,87.121 77.933,88.164 v 39.504 c 0,52.75 -42.905,95.666 -95.644,95.666 v 30.676 c 69.653,0 126.32,-56.677 126.32,-126.342 v -51.12 l -77.639,-87.83 0.681,-26.82 76.958,38.479 v -76.87 c 36.636,35.269 102.708,58.355 179.669,58.355 76.971,0 143.048,-23.093 179.682,-58.368 v 195.71 c 0,69.657 56.67,126.327 126.327,126.327 v -30.676 c -52.742,10e-4 -95.652,-42.908 -95.652,-95.652 z M 305.989,262.686 c -97.393,0 -179.675,-42.48 -179.675,-92.761 0,-50.281 82.282,-92.758 179.675,-92.758 97.393,0 179.675,42.478 179.675,92.758 0,50.28 -82.28,92.761 -179.675,92.761 z"
           inkscape:connector-curvature="0"
           style="fill:#404940" />
        <path
           id="path149"
           d="m 407.449,114.48 c -27.35,-11.293 -63.384,-17.514 -101.46,-17.514 -38.078,0 -74.109,6.221 -101.46,17.514 -31.654,13.072 -49.084,32.127 -49.084,53.657 0,21.53 17.431,40.587 49.084,53.659 27.348,11.293 63.382,17.514 101.46,17.514 38.076,0 74.107,-6.221 101.46,-17.514 31.651,-13.072 49.084,-32.129 49.084,-53.659 0,-21.53 -17.433,-40.584 -49.084,-53.657 z m -11.71,78.963 c -23.724,9.799 -55.596,15.193 -89.75,15.193 -34.154,0 -66.028,-5.395 -89.75,-15.193 -22.232,-9.179 -30.118,-19.37 -30.118,-25.306 0,-5.936 7.888,-16.123 30.118,-25.304 23.721,-9.799 55.596,-15.194 89.75,-15.194 34.154,0 66.026,5.395 89.75,15.194 22.232,9.179 30.117,19.368 30.117,25.304 0,5.936 -7.885,16.128 -30.117,25.306 z"
           inkscape:connector-curvature="0"
           style="fill:#404940" />
        <path
           id="path151"
           d="m 352.003,153.163 h -92.029 c -8.471,0 -15.338,6.867 -15.338,15.338 0,8.471 6.867,15.338 15.338,15.338 h 92.029 c 8.471,0 15.338,-6.867 15.338,-15.338 0,-8.471 -6.864,-15.338 -15.338,-15.338 z"
           inkscape:connector-curvature="0"
           style="fill:#404940" />
      </g>
    </g>
    <g
       id="g157" />
    <g
       id="g159" />
    <g
       id="g161" />
    <g
       id="g163" />
    <g
       id="g165" />
    <g
       id="g167" />
    <g
       id="g169" />
    <g
       id="g171" />
    <g
       id="g173" />
    <g
       id="g175" />
    <g
       id="g177" />
    <g
       id="g179" />
    <g
       id="g181" />
    <g
       id="g183" />
    <g
       id="g185" />
  </g>
</svg>
