<?xml version="1.0"?>
<svg xmlns="http://www.w3.org/2000/svg" height="512px" viewBox="0 -1 512 512" width="512px"><path d="m464.0625 479.871094h-67.199219v-17.769532h24.78125c8.554688 0 15.492188-6.9375 15.492188-15.492187v-21.761719c0-8.339844-6.410157-15.515625-14.742188-15.910156-8.894531-.417969-16.238281 6.667969-16.238281 15.472656v6.710938h-9.292969v-73.394532c0-8.339843-6.410156-15.515624-14.738281-15.910156-8.898438-.417968-16.238281 6.671875-16.238281 15.472656v41.992188h-10.328125v-16.082031c0-8.339844-6.410156-15.515625-14.738282-15.910157-8.894531-.417968-16.238281 6.667969-16.238281 15.472657v32.011719c0 8.554687 6.933594 15.488281 15.488281 15.488281h25.816407v49.609375h-155.863281l4.414062-131.855469h59.136719c22.3125-.03125 40.464843-18.207031 40.464843-40.519531v-74.265625c0-19.945313-16.503906-36.039063-36.617187-35.324219-19.109375.675781-34.074219 16.402344-34.074219 35.800781v43.605469h-26.539062l2.859375-85.234375c1.414062-38.832031-29.671875-70.769531-68.246094-70.769531-37.808594 0-69.5 31.175781-68.234375 70.722656l5.101562 152.464844h-17.597656v-43.453125c0-19.34375-15.277344-35.59375-34.621094-35.980469-19.875-.394531-36.070312 15.558594-36.070312 35.339844v70.316406c0 24.558594 19.910156 44.472656 44.472656 44.472656h46.183594l2.175781 64.679688h-65.722656c-8.339844 0-15.515625 6.410156-15.910156 14.742187-.417969 8.894531 6.671875 16.238281 15.472656 16.238281h437.828125c8.804688 0 15.890625-7.34375 15.472656-16.238281-.394531-8.332031-7.570312-14.742187-15.910156-14.742187zm-342.945312-80.691406c-.28125-8.347657-7.128907-14.96875-15.480469-14.96875h-59.875c-8.164063 0-14.785157-6.617188-14.785157-14.785157v-68.828125c0-2.28125 1.664063-4.320312 3.933594-4.539062 2.605469-.253906 4.804688 1.792968 4.804688 4.34375v58.699218c0 9.042969 7.328125 16.375 16.375 16.375h47.964844c2.394531 0 4.789062-.460937 6.941406-1.511718 5.710937-2.777344 8.988281-8.511719 8.789062-14.496094-5.96875-178.335938-5.660156-168.730469-5.660156-169.90625 0-15.410156 9.40625-28.667969 22.78125-34.335938v324.644532h-13.078125zm46.765624 80.691406v-323.78125c13.097657 6.441406 21.371094 19.964844 20.824219 34.90625l-3.394531 101.289062c-.203125 5.984375 3.078125 11.722656 8.792969 14.5 2.152343 1.046875 4.546875 1.507813 6.941406 1.507813h61.171875c6.6875 0 12.105469-5.417969 12.105469-12.105469v-62.480469c0-2.542969 1.921875-4.761719 4.195312-4.84375 2.550781-.09375 4.542969 1.945313 4.542969 4.367188v74.265625c0 5.253906-4.277344 9.535156-9.511719 9.542968h-74.089843c-8.351563 0-15.203126 6.621094-15.480469 14.96875l-4.953125 147.863282zm0 0" fill="#404940"/><path d="m398.769531 167.792969c30.085938 0 54.5625-24.476563 54.5625-54.5625 0-30.085938-24.476562-54.5625-54.5625-54.5625-30.085937 0-54.5625 24.476562-54.5625 54.5625 0 30.085937 24.476563 54.5625 54.5625 54.5625zm0-78.148438c13.003907 0 23.585938 10.582031 23.585938 23.585938 0 13.003906-10.582031 23.585937-23.585938 23.585937-13.003906 0-23.585937-10.582031-23.585937-23.585937 0-13.003907 10.582031-23.585938 23.585937-23.585938zm0 0" fill="#404940"/><path d="m496.511719 97.742188h-12.378907c-8.554687 0-15.488281 6.933593-15.488281 15.488281 0 8.554687 6.933594 15.488281 15.488281 15.488281h12.378907c8.554687 0 15.488281-6.933594 15.488281-15.488281 0-8.554688-6.933594-15.488281-15.488281-15.488281zm0 0" fill="#404940"/><path d="m301.027344 128.71875h12.378906c8.554688 0 15.488281-6.933594 15.488281-15.488281 0-8.554688-6.933593-15.488281-15.488281-15.488281h-12.378906c-8.554688 0-15.488282 6.933593-15.488282 15.488281 0 8.554687 6.933594 15.488281 15.488282 15.488281zm0 0" fill="#404940"/><path d="m470.082031 63.820312 8.753907-8.75c6.046874-6.050781 6.046874-15.855468 0-21.90625-6.046876-6.046874-15.855469-6.046874-21.90625 0l-8.75 8.753907c-6.050782 6.046875-6.050782 15.855469 0 21.902343 6.046874 6.050782 15.855468 6.050782 21.902343 0zm0 0" fill="#404940"/><path d="m327.457031 162.636719-8.753906 8.753906c-6.046875 6.050781-6.050781 15.855469 0 21.90625 6.046875 6.046875 15.855469 6.046875 21.90625 0l8.753906-8.753906c6.046875-6.046875 6.046875-15.855469 0-21.90625-6.046875-6.046875-15.855469-6.046875-21.90625 0zm0 0" fill="#404940"/><path d="m398.769531 43.355469c8.554688 0 15.488281-6.933594 15.488281-15.488281v-12.378907c0-8.554687-6.933593-15.488281-15.488281-15.488281-8.554687 0-15.488281 6.933594-15.488281 15.488281v12.378907c0 8.554687 6.933594 15.488281 15.488281 15.488281zm0 0" fill="#404940"/><path d="m383.28125 198.59375v12.378906c0 8.550782 6.933594 15.488282 15.488281 15.488282 8.554688 0 15.488281-6.9375 15.488281-15.488282v-12.378906c0-8.554688-6.933593-15.488281-15.488281-15.488281-8.554687 0-15.488281 6.933593-15.488281 15.488281zm0 0" fill="#404940"/><path d="m470.082031 162.636719c-6.046875-6.046875-15.855469-6.046875-21.902343 0-6.050782 6.050781-6.050782 15.859375 0 21.90625l8.75 8.753906c6.050781 6.046875 15.855468 6.046875 21.90625 0 6.046874-6.050781 6.046874-15.855469 0-21.90625zm0 0" fill="#404940"/><path d="m327.457031 63.820312c6.046875 6.050782 15.855469 6.050782 21.90625 0 6.046875-6.046874 6.046875-15.855468 0-21.902343l-8.753906-8.753907c-6.050781-6.046874-15.855469-6.046874-21.90625 0-6.050781 6.050782-6.046875 15.855469 0 21.90625zm0 0" fill="#404940"/></svg>
