<svg height="512pt" viewBox="-33 0 512 512.00001" width="512pt" xmlns="http://www.w3.org/2000/svg"><path d="m222.339844 328.914062c-19.183594 10.195313-32.25 30.371094-32.25 53.605469 0 .726563.015625 1.449219.039062 2.167969 1.433594 40.773438 62.984375 40.773438 64.417969 0 .027344-.71875.039063-1.441406.039063-2.167969 0-23.234375-13.066407-43.410156-32.246094-53.605469zm0 0" fill="#67c1b0"/><path d="m222.339844 415.277344c-15.742188 0-31.492188-10.195313-32.207032-30.589844-.03125-.714844-.042968-1.4375-.042968-2.164062 0-23.230469 13.070312-43.417969 32.25-53.609376-7.597656 10.191407-12.777344 30.378907-12.777344 53.609376 0 .726562 0 1.449218.007812 2.164062.285157 20.394531 6.527344 30.589844 12.769532 30.589844zm0 0" fill="#51a2af"/><path d="m81.726562 328.914062c-19.179687 10.195313-32.246093 30.371094-32.246093 53.605469 0 .726563.011719 1.449219.035156 2.167969 1.433594 40.773438 62.988281 40.773438 64.417969 0 .027344-.71875.039062-1.441406.039062-2.167969 0-23.234375-13.066406-43.410156-32.246094-53.605469zm0 0" fill="#67c1b0"/><path d="m81.726562 415.277344c-15.742187 0-31.492187-10.195313-32.207031-30.589844-.03125-.714844-.042969-1.4375-.042969-2.164062 0-23.230469 13.074219-43.417969 32.25-53.609376-7.597656 10.191407-12.777343 30.378907-12.777343 53.609376 0 .726562 0 1.449218.011719 2.164062.28125 20.394531 6.523437 30.589844 12.765624 30.589844zm0 0" fill="#51a2af"/><path d="m152.03125 425.636719c-19.179688 10.195312-32.246094 30.371093-32.246094 53.609375 0 .722656.011719 1.445312.039063 2.167968 1.433593 40.769532 62.984375 40.769532 64.417969 0 .023437-.722656.039062-1.445312.039062-2.167968 0-23.238282-13.066406-43.414063-32.25-53.609375zm0 0" fill="#67c1b0"/><path d="m152.03125 512c-15.738281 0-31.492188-10.191406-32.207031-30.589844-.03125-.710937-.039063-1.4375-.039063-2.164062 0-23.230469 13.070313-43.417969 32.246094-53.609375-7.597656 10.191406-12.777344 30.378906-12.777344 53.609375 0 .726562 0 1.453125.011719 2.164062.285156 20.398438 6.523437 30.589844 12.765625 30.589844zm0 0" fill="#51a2af"/><path d="m292.644531 425.636719c-19.179687 10.195312-32.246093 30.371093-32.246093 53.609375 0 .722656.011718 1.445312.035156 2.167968 1.433594 40.769532 62.988281 40.769532 64.421875 0 .023437-.722656.035156-1.445312.035156-2.167968 0-23.238282-13.066406-43.414063-32.246094-53.609375zm0 0" fill="#67c1b0"/><path d="m292.644531 512c-15.742187 0-31.492187-10.191406-32.207031-30.589844-.03125-.710937-.042969-1.4375-.042969-2.164062 0-23.230469 13.074219-43.417969 32.25-53.609375-7.597656 10.191406-12.777343 30.378906-12.777343 53.609375 0 .726562 0 1.453125.011718 2.164062.28125 20.398438 6.523438 30.589844 12.765625 30.589844zm0 0" fill="#51a2af"/><path d="m445.515625 193.625c0 50.847656-36.574219 92.070312-81.683594 92.070312h-267.359375c-53.273437 0-96.472656-48.683593-96.472656-108.734374 0-60.042969 43.199219-108.722657 96.472656-108.722657 7.429688 0 14.65625.945313 21.59375 2.730469 21.96875-42.441406 62.804688-70.96875 109.550782-70.96875 16.886718 0 32.996093 3.71875 47.71875 10.476562 35.640624 16.328126 63.191406 50.414063 74.023437 92.519532 4.699219-.945313 9.53125-1.4375 14.472656-1.4375 45.109375 0 81.683594 41.210937 81.683594 92.066406zm0 0" fill="#4f5263"/><path d="m275.335938 10.476562c-102.882813 0-110.765626 119.179688-110.765626 119.179688s-99.296874 4.242188-99.296874 77.230469 99.296874 78.808593 99.296874 78.808593h-68.097656c-53.273437 0-96.472656-48.683593-96.472656-108.734374 0-60.042969 43.199219-108.722657 96.472656-108.722657 7.429688 0 14.65625.945313 21.59375 2.730469 21.96875-42.441406 62.804688-70.96875 109.550782-70.96875 16.886718 0 32.996093 3.71875 47.71875 10.476562zm0 0" fill="#33344a"/><path d="m362.988281 331.078125c-19.179687 10.195313-32.246093 30.371094-32.246093 53.609375 0 .726562.011718 1.449219.039062 2.167969 1.433594 40.773437 62.984375 40.773437 64.417969 0 .023437-.71875.039062-1.441407.039062-2.167969 0-23.238281-13.066406-43.414062-32.25-53.609375zm0 0" fill="#67c1b0"/><path d="m362.988281 417.441406c-15.738281 0-31.488281-10.191406-32.203125-30.585937-.03125-.714844-.042968-1.441407-.042968-2.164063 0-23.234375 13.070312-43.417968 32.246093-53.613281-7.59375 10.195313-12.777343 30.378906-12.777343 53.613281 0 .722656 0 1.449219.011718 2.164063.285156 20.394531 6.527344 30.585937 12.765625 30.585937zm0 0" fill="#51a2af"/></svg>