<?xml version="1.0" encoding="iso-8859-1"?>
<!-- Generator: Adobe Illustrator 19.0.0, SVG Export Plug-In . SVG Version: 6.00 Build 0)  -->
<svg version="1.1" id="Capa_1" xmlns="http://www.w3.org/2000/svg" xmlns:xlink="http://www.w3.org/1999/xlink" x="0px" y="0px"
	 viewBox="0 0 512.232 512.232" style="enable-background:new 0 0 512.232 512.232;" xml:space="preserve">
<g>
	<path style="fill:#AF8066;" d="M21.126,433.906l1.854,0.265l455.945,77.771c-14.566-2.472-23.658-20.039-20.303-39.283
		c3.178-18.45,16.596-31.691,30.632-30.543l-23.305-3.972l-140.712-24.011L118.847,378.91h-0.088l-85.451-14.566
		c-14.654-2.472-29.131,11.123-32.486,30.279C-2.532,413.868,6.56,431.435,21.126,433.906z"/>
	<path style="fill:#7F5B53;" d="M478.924,511.942c14.566,2.472,29.131-11.123,32.486-30.279
		c3.354-19.244-5.738-36.811-20.303-39.283l-1.854-0.265c-14.036-1.148-27.454,12.094-30.632,30.543
		C455.267,491.904,464.359,509.47,478.924,511.942z"/>
	<path style="fill:#CB8252;" d="M491.107,433.906l-1.854,0.265L33.308,511.942c14.566-2.472,23.658-20.039,20.303-39.283
		c-3.178-18.45-16.596-31.691-30.632-30.543l23.305-3.972l140.712-24.011l206.389-35.222h0.088l85.451-14.566
		c14.654-2.472,29.131,11.123,32.486,30.279C514.764,413.868,505.672,431.435,491.107,433.906z"/>
	<path style="fill:#805333;" d="M33.308,511.942c-14.566,2.472-29.131-11.123-32.486-30.279
		c-3.354-19.244,5.738-36.811,20.303-39.283l1.854-0.265c14.036-1.148,27.454,12.094,30.632,30.543
		C56.966,491.904,47.873,509.47,33.308,511.942z"/>
	<path style="fill:#CC4B4C;" d="M423.572,302.21c0.393-7.204,0.353-14.424-0.12-21.623c-0.982-31.169-9.314-61.666-24.316-89.006
		c-17.788-27.391-38.949-52.438-62.985-74.551c-27.622-27.717-48.335-75.25-12.575-105.154c-0.313,0.262-21.958-7.467-23.614-7.872
		c-17.515-4.737-35.899-5.28-53.663-1.586c-58.431,14.027-73.415,70.27-61.007,118.092c-42.759-8.869-66.642,4.67-78.434,15.843
		c-2.157,2.043-2.963,5.135-2.079,7.971c0.884,2.836,3.305,4.922,6.24,5.378c8.831,2.126,18.865,5.375,20.242,5.961
		c17.382,7.4,31.952,22.295,28.966,39.462c-3.03,9.941-9.001,18.731-17.126,25.21c-20.939,21.705-32.845,50.559-33.305,80.714
		c0,72.594,70.377,131.443,157.192,131.443c42.689,0.48,84.051-14.829,116.141-42.986
		C407.877,367.088,422.471,335.586,423.572,302.21z"/>
	<path style="fill:#F29C1F;" d="M324.089,423.313c-18.426,6.091-37.708,9.191-57.115,9.181c-6.356,0-12.712-0.353-18.891-0.971
		v-0.441c-35.84-15.448-74.063-42.99-74.417-79.537c0.506-19.003,9.636-36.742,24.806-48.199
		c11.565-9.357,25.6-15.978,37.164-25.512c11.082-8.076,19.183-19.591,23.04-32.75c2.31-14.859,2.991-29.926,2.03-44.932
		c0,1.059,5.385,3.619,6.268,4.149c19.115,11.994,33.061,30.694,39.106,52.436c0.983,3.914,1.662,7.898,2.03,11.917v0.353
		c1.589,20.657-9.799,39.018-21.716,56.497c3.445,2.17,7.153,3.891,11.034,5.12c4.177,1.118,8.477,1.711,12.8,1.766
		c8.469,0.173,16.836-1.866,24.276-5.914c3.799-2.076,7.063-5.008,9.534-8.563c2.12-3.676,3.724-7.627,4.767-11.741
		c-0.088,0.177,4.679,5.208,5.12,5.826c2.017,2.846,3.789,5.858,5.297,9.004c2.727,5.433,4.858,11.146,6.356,17.037
		C375.024,372.908,355.603,402.833,324.089,423.313z"/>
</g>
<g>
</g>
<g>
</g>
<g>
</g>
<g>
</g>
<g>
</g>
<g>
</g>
<g>
</g>
<g>
</g>
<g>
</g>
<g>
</g>
<g>
</g>
<g>
</g>
<g>
</g>
<g>
</g>
<g>
</g>
</svg>
