<?xml version="1.0" encoding="iso-8859-1"?>
<!-- Generator: Adobe Illustrator 19.0.0, SVG Export Plug-In . SVG Version: 6.00 Build 0)  -->
<svg version="1.1" id="Layer_1" xmlns="http://www.w3.org/2000/svg" xmlns:xlink="http://www.w3.org/1999/xlink" x="0px" y="0px"
	 viewBox="0 0 511.97 511.97" style="enable-background:new 0 0 511.97 511.97;" xml:space="preserve">
<g>
	<path style="fill:#9ED36A;" d="M351.307,99.322c0,52.653-42.685,95.338-95.338,95.338c-52.637,0-95.322-42.685-95.322-95.338
		c0-52.637,42.685-95.322,95.322-95.322C308.623,4,351.307,46.685,351.307,99.322z"/>
	<path style="fill:#9ED36A;" d="M206.347,320.309c0,25.967-21.045,47.013-47.013,47.013c-25.952,0-46.997-21.046-46.997-47.013
		c0-25.951,21.045-46.997,46.997-46.997C185.302,273.311,206.347,294.357,206.347,320.309z"/>
	<path style="fill:#9ED36A;" d="M112.338,170.317c0,25.967-21.045,47.013-47.013,47.013c-25.952,0-46.997-21.046-46.997-47.013
		c0-25.951,21.045-46.997,46.997-46.997C91.292,123.32,112.338,144.367,112.338,170.317z"/>
	<path style="fill:#9ED36A;" d="M390.992,361.65c0,25.951-21.045,46.996-47.012,46.996c-25.952,0-46.998-21.045-46.998-46.996
		c0-25.968,21.046-47.014,46.998-47.014C369.947,314.637,390.992,335.682,390.992,361.65z"/>
	<path style="fill:#9ED36A;" d="M505.673,220.97c0,37.373-30.295,67.684-67.684,67.684c-37.373,0-67.668-30.311-67.668-67.684
		s30.295-67.667,67.668-67.667C475.379,153.303,505.673,183.598,505.673,220.97z"/>
</g>
<path d="M490.627,490.642h-42.653V297.888c36.185-5.172,63.996-36.279,63.996-73.902c0-41.232-33.436-74.652-74.683-74.652
	c-41.217,0-74.652,33.42-74.652,74.652c0,37.623,27.811,68.73,63.996,73.902v192.753h-69.402v-75.729
	c24.343-4.938,42.686-26.467,42.686-52.263c0-29.451-23.873-53.341-53.34-53.341c-29.468,0-53.342,23.89-53.342,53.341
	c0,25.796,18.344,47.325,42.686,52.263v75.729h-69.37V212.799c53.902-5.359,95.993-50.825,95.993-106.134
	C362.542,47.764,314.796,0,255.893,0c-58.934,0-106.681,47.763-106.681,106.665c0,55.309,42.091,100.775,95.994,106.134v277.842
	h-74.558V383.086c30.279-5.078,53.34-31.389,53.34-63.105c0-35.342-28.654-63.996-63.996-63.996s-63.997,28.653-63.997,63.995
	c0,31.717,23.061,58.027,53.34,63.105v107.556H74.652V233.768c30.279-5.078,53.34-31.405,53.34-63.106
	c0-35.341-28.654-63.996-63.996-63.996S0.001,135.32,0.001,170.661c0,31.701,23.061,58.028,53.309,63.106v256.875H10.656
	C4.765,490.643,0,495.424,0,501.314c0,5.891,4.765,10.656,10.656,10.656h479.97c5.906,0,10.656-4.766,10.656-10.656
	C501.283,495.422,496.533,490.642,490.627,490.642z M383.977,223.986c0-29.405,23.905-53.325,53.31-53.325
	c29.405,0,53.34,23.92,53.34,53.325c0,25.764-18.342,47.31-42.653,52.262v-52.262c0-5.891-4.78-10.656-10.687-10.656
	c-5.875,0-10.656,4.765-10.656,10.656v52.262C402.32,271.297,383.977,249.751,383.977,223.986z M314.576,362.65
	c0-17.64,14.342-31.998,31.998-31.998c17.654,0,31.998,14.358,31.998,31.998c0,13.905-8.906,25.765-21.344,30.171V362.65
	c0-5.89-4.78-10.671-10.654-10.671c-5.906,0-10.656,4.781-10.656,10.671v30.171C323.481,388.414,314.576,376.555,314.576,362.65z
	 M195.551,167.005c-16.124-16.124-24.999-37.544-24.999-60.34c0-22.795,8.875-44.216,24.999-60.34
	c16.093-16.108,37.529-24.983,60.34-24.983c22.78,0,44.216,8.875,60.309,24.983c16.124,16.124,24.999,37.544,24.999,60.34
	s-8.875,44.216-24.999,60.34c-13.562,13.562-30.904,21.999-49.652,24.327v-84.667l0,0c0-5.89-4.781-10.671-10.656-10.671
	c-5.906,0-10.687,4.781-10.687,10.671l0,0v84.667C226.456,189.005,209.113,180.583,195.551,167.005z M117.337,319.98
	c0-23.514,19.124-42.654,42.654-42.654s42.654,19.141,42.654,42.654c0,19.842-13.625,36.576-31.998,41.311V319.98
	c0-5.891-4.781-10.656-10.656-10.656c-5.906,0-10.656,4.766-10.656,10.656v41.311C130.93,356.556,117.337,339.823,117.337,319.98z
	 M21.327,170.661c0-23.53,19.14-42.669,42.669-42.669s42.654,19.139,42.654,42.669c0,19.843-13.625,36.561-31.998,41.31v-41.31
	c0-5.89-4.781-10.671-10.656-10.671c-5.906,0-10.687,4.781-10.687,10.671v41.31C34.936,207.221,21.327,190.505,21.327,170.661z"/>
<g>
</g>
<g>
</g>
<g>
</g>
<g>
</g>
<g>
</g>
<g>
</g>
<g>
</g>
<g>
</g>
<g>
</g>
<g>
</g>
<g>
</g>
<g>
</g>
<g>
</g>
<g>
</g>
<g>
</g>
</svg>
