<?xml version="1.0" encoding="iso-8859-1"?>
<!-- Generator: Adobe Illustrator 19.0.0, SVG Export Plug-In . SVG Version: 6.00 Build 0)  -->
<svg xmlns="http://www.w3.org/2000/svg" xmlns:xlink="http://www.w3.org/1999/xlink" version="1.1" id="Layer_1" x="0px" y="0px" viewBox="0 0 512 512" style="enable-background:new 0 0 512 512;" xml:space="preserve" width="512px" height="512px">
<g>
	<g>
		<path d="M490.656,490.656H448v-192.75c36.188-5.188,64-36.289,64-73.906c0-41.234-33.438-74.664-74.688-74.664    c-41.219,0-74.656,33.43-74.656,74.664c0,37.617,27.813,68.719,64,73.906v192.75H357.25v-75.719    c24.344-4.938,42.688-26.469,42.688-52.281c0-29.438-23.875-53.328-53.344-53.328s-53.344,23.891-53.344,53.328    c0,25.813,18.344,47.344,42.688,52.281v75.719h-69.375V212.805c53.906-5.352,96-50.828,96-106.141    C362.563,47.758,314.813,0,255.906,0c-58.938,0-106.688,47.758-106.688,106.664c0,55.313,42.094,100.789,96,106.141v277.852    h-74.563V383.109C200.938,378.031,224,351.719,224,320c0-35.344-28.656-64-64-64s-64,28.656-64,64    c0,31.719,23.063,58.031,53.344,63.109v107.547H74.656V233.773C104.938,228.695,128,202.375,128,170.664c0-35.344-28.656-64-64-64    s-64,28.656-64,64c0,31.711,23.063,58.031,53.313,63.109v256.883H10.656C4.766,490.656,0,495.438,0,501.344    C0,507.219,4.766,512,10.656,512h480c5.906,0,10.656-4.781,10.656-10.656C501.313,495.438,496.563,490.656,490.656,490.656z     M64,160c-5.906,0-10.688,4.773-10.688,10.664v41.32c-18.374-4.75-31.984-21.476-31.984-41.32C21.328,147.141,40.469,128,64,128    s42.656,19.141,42.656,42.664c0,19.844-13.625,36.57-32,41.32v-41.32C74.656,164.773,69.875,160,64,160z M160,309.344    c-5.906,0-10.656,4.766-10.656,10.656v41.313c-18.406-4.75-32-21.469-32-41.313c0-23.531,19.125-42.656,42.656-42.656    s42.656,19.125,42.656,42.656c0,19.844-13.625,36.563-32,41.313V320C170.656,314.109,165.875,309.344,160,309.344z M255.908,96    c-5.906,0-10.688,4.773-10.688,10.664v84.68c-18.751-2.328-36.095-10.758-49.657-24.336c-16.125-16.117-25-37.547-25-60.344    c0-22.789,8.875-44.219,25-60.336c16.094-16.117,37.531-24.992,60.344-24.992c22.781,0,44.219,8.875,60.313,24.992    c16.125,16.117,25,37.547,25,60.336c0,22.797-8.875,44.227-25,60.344c-13.563,13.57-30.906,22.008-49.656,24.336v-84.672    c0,0,0,0,0-0.008C266.564,100.773,261.783,96,255.908,96z M346.594,352c-5.906,0-10.656,4.781-10.656,10.656v30.188    c-12.438-4.406-21.344-16.281-21.344-30.188c0-17.625,14.344-32,32-32s32,14.375,32,32c0,13.906-8.906,25.781-21.344,30.188    v-30.188C357.25,356.781,352.469,352,346.594,352z M437.313,213.336c-5.875,0-10.656,4.773-10.656,10.664v52.25    C402.344,271.305,384,249.758,384,224c0-29.406,23.906-53.336,53.313-53.336s53.344,23.93,53.344,53.336    c0,25.758-18.344,47.305-42.656,52.25V224C448.001,218.109,443.22,213.336,437.313,213.336z" fill="#404940"/>
	</g>
</g>
<g>
</g>
<g>
</g>
<g>
</g>
<g>
</g>
<g>
</g>
<g>
</g>
<g>
</g>
<g>
</g>
<g>
</g>
<g>
</g>
<g>
</g>
<g>
</g>
<g>
</g>
<g>
</g>
<g>
</g>
</svg>
