<?xml version="1.0" encoding="UTF-8" standalone="no"?>
<svg xmlns:rdf="http://www.w3.org/1999/02/22-rdf-syntax-ns#" xmlns="http://www.w3.org/2000/svg" height="146px" width="501px" xmlns:cc="http://creativecommons.org/ns#" xmlns:xlink="http://www.w3.org/1999/xlink" xmlns:dc="http://purl.org/dc/elements/1.1/">
<title>Caterpillar</title>
<desc xmlns:ian_image_library="http://ian.umces.edu/imagelibrary/">
      <ian_image_library:title>Caterpillar</ian_image_library:title>
      <ian_image_library:descr>Illustration of caterpillar</ian_image_library:descr>
      <ian_image_library:scene>
		<ian_image_library:contains>symbol,vector,illustration,caterpillar,Arthropoda,Insecta,Lepidoptera,butterfly,moth,larva</ian_image_library:contains>
        <ian_image_library:when>1999-01-01</ian_image_library:when> 
	  </ian_image_library:scene>
   </desc>
    <metadata
		id="metadata-iil-f22c7598528651f4f9075663fdbe95b2">
      <rdf:RDF>
      <cc:Work
         rdf:about="">
        <dc:format>image/svg+xml</dc:format>
        <dc:type
           rdf:resource="http://purl.org/dc/dcmitype/StillImage" />
        <cc:license
           rdf:resource="http://creativecommons.org/licenses/by-sa/3.0/" />
        <dc:title>Caterpillar</dc:title>
		<dc:date>1999-01-01</dc:date>
        <dc:creator>
			<cc:Agent>
				<dc:title>Dieter Tracey</dc:title>
			</cc:Agent>	
		</dc:creator>   
		<dc:rights>
          <cc:Agent>
            <dc:title>Dieter Tracey, Marine Botany UQ</dc:title>
          </cc:Agent>
        </dc:rights>
        <dc:publisher>
          <cc:Agent>
            <dc:title>Integration and Application Network</dc:title>
          </cc:Agent>
        </dc:publisher>
		<dc:identifier>http://ian.umces.edu/imagelibrary/displayimage-4264.html</dc:identifier>
        <dc:source>http://ian.umces.edu/imagelibrary/displayimage-4264.html</dc:source>
        <dc:language>en-US</dc:language>
        <dc:subject>
          <rdf:Bag>
            <rdf:li>symbol,vector,illustration,caterpillar,Arthropoda,Insecta,Lepidoptera,butterfly,moth,larva</rdf:li>
          </rdf:Bag>
        </dc:subject>
        <dc:coverage></dc:coverage>
        <dc:description>Illustration of caterpillar</dc:description>
        <dc:contributor>
          <cc:Agent>
            <dc:title></dc:title>
          </cc:Agent>
        </dc:contributor>
      </cc:Work>
      <cc:License
         rdf:about="http://creativecommons.org/licenses/by-sa/3.0/">
        <cc:permits
           rdf:resource="http://creativecommons.org/ns#Reproduction" />
        <cc:permits
           rdf:resource="http://creativecommons.org/ns#Distribution" />
        <cc:requires
           rdf:resource="http://creativecommons.org/ns#Notice" />
        <cc:requires
           rdf:resource="http://creativecommons.org/ns#Attribution" />
        <cc:permits
           rdf:resource="http://creativecommons.org/ns#DerivativeWorks" />
        <cc:requires
           rdf:resource="http://creativecommons.org/ns#ShareAlike" />
      </cc:License>
    </rdf:RDF>
  </metadata>
	
 <defs></defs>
 <path clip-rule="evenodd" d="m463.54 89.588c-2.982 7.274-10.661 9.169-16.417 13.42-.823.604-1.597 1.258-2.438 1.82-2.087 1.363-4.277 2.99-6.637 3.848-3.033 1.122-6.424 1.545-9.18-.529-1.701-1.268.35-2.919 1.556-3.563.943-.498 3.099-.613 3.313-1.925.22-1.461-2.827-2.634-3.871-3.067-4.085-1.692-6.949-4.665-9.892-7.898-1.922-2.139-2.939-1.271-5.244-.383-2.084.803-3.532 2.739-4.854 4.569-2.315 3.183-5.119 5.945-7.658 8.895l-1.077 1.248-1.095 1.068-1.34.868-1.332.878-1.586.708-1.597.508-1.844.508-1.848.136-1.387.295-1.627-.071-1.454-.688.058-2.549 1.237-2.23 1.471-2.254.529-2.59.169-.783-.054-.783-.074-.973-.052-.783-1.132.478-1.122.664-1.122.665-.864.848-1.111.857-.878.844-1.116.857-1.342.678.332 1.353.111 1.556.122 1.756-.372 1.386-.193.6-.156.997-.645.824-.634 1.027-1.936 2.092-2.464 1.546-2.719 1.172-2.993.604-2.993.593-3.233.434-3.237.42-2.983.604-.729-.339-.285-.759-.074-.973.18-.793 2.041-.932 1.776-1.098 1.556-1.092 1.542-1.278 1.068-1.451.803-1.817.336-1.79.099-1.956-.794-1.312.359-1.393-.071-1.166-1.681-.665-.794-1.502-1.281-1.481-.841-1.691-.121-1.956-2.19-1.407-1.986-1.417-1.539-1.851-1.084-2.265-.679.244-.918.264-.668.434-.888.654-.889.644-.898.458-.888.644-.909.454-.985 2.42-.75 2.593-.993 2.42-2.444 1.735-1.152.274-1.163.085-1.152.085-.891.657-.072 2.346-.298 2.359-.749 2.4-1.007 2.221-1.491 2.064-1.977 1.892-2.21 1.735-2.475 1.343-.908.264-.912.265-1.173.074-.922.064-1.153.085-.928.061-1.207-.295-.938-.329-1.167.085-1.162.075-1.18-.105-.936-.128-1.193-.305-1.187-.298-.973-.529-.749-.729 1.298-1.458 1.546-1.091 1.597-.695 1.776-1.112 2.613-2.719 1.18-3.014.491-2.973.444-3.742-.772-.932-1.051-1.682-1.309-1.861-1.343-2.444-1.322-2.261-1.098-2.454-.857-2.095-.37-1.936-3.586 2.02-3.827 1.841-3.895 1.248-4.112 1.078-4.146.878-4.396.708-4.373.708-4.399.508-14.647-2.484-3.827 2.03-3.867 1.458-3.638 1.227-3.685.658-3.228.614-3.247.23-2.823-.18-2.811-.19-2.583-.21-2.362-.424-1.898-.444-1.881-.254-1.671-.475-1.176-.108-.939-.136-.698.054-1.271 1.851-1.749 1.681-2.014 1.119-2.254 1.142-2.515.773-2.275.75-2.305.552-2.295.359-.563 1.997-.803 1.81-1.292 1.651-1.532 1.481-1.807.718-1.6.495-1.827.529-1.831.519-1.606.309-1.851.325-1.847.339-1.854.128-.657.634.054.772.051.783-.166.793-1.346.685-1.383.298-1.651-.085-1.651-.274-1.661-.468-1.658-.274-1.42-.285-1.626.105-1.703-1.048-1.725-1.247-1.501-1.448-.614-1.915-1.363.285-1.159.275-1.379.308-1.366.485-1.353.488-1.376.475-1.373.298-1.376.495.549 1.132.074.973-.4.813-.658.827-.888.644-1.099.868-.877.644-.898.644-1.586.509-1.611.498-1.586.699-1.617.315-1.597.309-1.63.115-1.881-.254-1.926-.644-1.986-1.81-2-1.807-1.312-2.061.038-2.739-2.184-1.217-2.813-.193-2.994.617-2.962.983-2.715 1.163-2.479 1.353-1.796.908-.888.647.603 1.925-.128 1.563-1.289 1.461-2.027 1.122-1.844.325-2.074.35-2.081.149-2.123-.055-2.322-.03-1.881-.244-2.136-.444-1.691-.857-1.97-1.417-1.532-1.658-.837-2.085.063-2.349-.05-.793-1.058-1.671-1.766-1.837-1.936-1.027-.667.444-.678.434-.908.254-.898.454-.898.454-.925.265-.902.454-.909.454.376 1.936-.583 1.6-1.058 1.447-1.078 1.248-.888.644-1.143.478-1.362.485-1.376.298-1.63.105-1.627.125-1.407-.095-1.417-.295-1.708-1.047-1.254-1.271-1.047-1.499-.37-1.936-1.607.315-1.396.095-1.638-.074-1.43-.485-1.058 1.637-1.041 1.831-1.274 1.661-1.766 1.301-.877.844-.889.647-.908.454-1.122.664-1.143.278-1.132.475-1.132.465-1.152.288-.285 2.556-.993 2.413-1.715 2.082-2.939 1.376-4.589 1.122-.359 1.586-.339 1.587-.349 1.786-.593 1.407-.844 1.427-1.067 1.247-1.583.889-1.827.528-3.01.214-2.793.189-2.803.011-2.559-.011-2.833-.379-2.59-.404-2.41-1.003-2.651-1.187-2.427-1.383-2.01-2.011-1.109-2.464.01-3.118.804-1.831 1.023-2.03.536-2.189-.387-2.306-2.265-2.189-1.39-3.037-.225-3.43.474-3.173 1.037-1.831.804-1.817 1.026-2.034 1.014-2.021 2.011-1.308.338-1.8-.152-2.125.312-2.169.804-1.837 1.038-1.82 1.057-1.651 1.047-1.627 1.278-1.661 1.302-1.447 1.532-1.492 1.525-1.471 1.552-1.088 1.787-1.102 1.81-.908 2.031-.932 2.041-.739 2.064-.729 2.051-.539 2.058-.722.878-.654.163-.993.18-.793.644-.827 3.038-3.353 3.753-2.993 4.254-2.451 4.746-2.105 5.023-1.525 5.068-1.143 5.088-.559 5.118-.169 3.563-2.4 3.84-1.841 4.082-1.661 4.346-1.278 4.359-1.102 4.6-.909 4.62-.719 4.624-.519 1.163-.095 1.407.095 1.162-.074 1.173.105.963.329 1.186.295.974.529.983.708 3.366-1.807 3.62-1.63 3.631-1.427 3.881-1.248 4.125-1.067 4.152-.699 4.16-.484 4.427-.119 1.644.074 1.417.295 1.671.455 1.651.288 1.427.285 1.634.084 1.376-.298 1.353-.685 1.783-1.302 2.02-1.122 2.031-.918 2.268-.953 2.047-.729 2.305-.549 2.275-.752 2.294-.559 3.678-.648 3.956-.285 3.956-.084 3.976.105 3.292.349 2.834.393 2.125.434.983.519 3.227-3.556 3.742-3.393 3.766-2.813 4.261-2.455 4.271-2.25 4.749-2.095 4.759-1.915 5.013-1.915 1.607-.315 1.84-.319 2.075-.349 1.86-.125 1.851-.139 1.882.064 1.841-.129 1.654.075 1.982-1.702 1.97-1.702 2.24-1.332 2.244-1.336 2.261-1.132 2.465-1.163 2.295-.739 2.498-.963 2.739-.793 2.525-.763 2.738-.58 2.539-.583 2.76-.58 2.763-.583 2.976-.603 2.767-.59 3.257-.234 3.485-.054 3.04-.01 3.271.159 3.054.169 3.055.37 3.078.559 2.867.773 2.251-.939 2.274-.752 2.306-.549 2.305-.36 2.306-.359 2.328-.169 2.53-.191 2.325.02 2.569.02 2.583.214 2.346.021 2.569.021 2.35.224 2.325.031 2.573.009 2.335.031 1.187.105 2.81.393 4.274.868 4.97 1.014 4.77 1.427 4.339 2.034 2.979 2.325 1.355 2.824 5.062-1.132 5.091-.56 5.149.22 4.963.827 4.77 1.417 4.346 2.041 3.891 2.261 3.458 2.878 1.776 1.831 1.318 2.061 1.085 2.274.634 2.295 3.532.339 3.298.549 3.322.742 3.098.949c8.034 2.464 14.078 8.759 19.152 15.081 2.519 3.142 5.566 6.929 7.4 10.396 1.4 2.634 1.816 5.478 3.823 7.807 1.513 1.796 2.189 3.776 4.136 5.233 1.797 1.356 3.912 1.99 6.143 2.149 4.708.325 9.668.41 14.416-.109 4.018-.444 9.974-5.932 13.241-.783 2.443 3.871-5.871 5.756-8.576 5.915-5.048.295-10.491-1.735-15.549-2.105-2.115-.159-4.23-.349-6.35-.393-1.329-.031-2.65-1.109-3.569.074-1.196 1.556.2 5.139.115 6.979-.15 2.985-.97 6.018-2.08 8.771z" fill-rule="evenodd"/>
 <linearGradient id="ian_symbols_ae9ed6b251e5d4a47da2a2cc21b7d133" y2="6.9795" gradientUnits="userSpaceOnUse" x2="288.85" y1="87.798" x1="288.85">
  <stop stop-color="#009A49" offset="0"/>
  <stop stop-color="#80C343" offset="1"/>
 </linearGradient>
 <polygon points="310.12 7.508 310.73 9.624 311.4 12.498 312.08 15.576 312.48 17.701 314.75 20.284 317.04 22.854 319.1 25.633 320.94 28.447 322.33 31.664 323.27 34.921 323.74 38.219 323.54 41.941 322.22 46.331 320.9 50.921 319.36 55.341 317.79 59.751 316.25 64.161 314.23 68.605 312.19 72.666 309.66 76.758 308.57 77.615 307.7 78.652 306.83 79.497 306.2 80.514 305.1 81.381 303.98 82.056 302.61 82.544 301 82.849 299.67 83.717 298.08 84.415 296.25 84.944 294.4 85.273 292.55 85.398 290.7 85.727 288.64 86.076 286.8 86.584 284.04 87.378 281.06 87.778 278.02 87.798 275.19 87.418 272.11 86.849 269.27 86.276 266.43 85.696 263.81 85.103 264.18 83.707 265.03 82.479 266.13 81.412 266.5 80.015 268.9 74.578 270.6 68.775 271.56 62.66 271.8 56.178 271.37 49.958 270 43.996 268.18 38.06 265.47 32.782 264.17 30.911 262.88 29.06 261.35 27.399 260.05 25.538 258.53 23.688 256.99 21.847 255.47 20.199 253.96 18.549 255.51 17.447 257.29 16.349 259.32 15.227 261.34 14.098 263.37 13.186 265.42 12.447 267.48 11.718 269.52 10.986 272.47 16.254 274.48 21.776 275.85 27.749 276.52 33.948 277.08 35.28 277.86 36.402 278.88 37.501 279.89 38.599 281.12 39.487 282.33 40.175 284 40.643 285.66 40.928 287.73 40.579 290.28 40.399 292.6 40.04 294.88 39.487 297.18 38.928 298.98 38.02 300.3 36.952 301.36 35.311 302.61 33.271 302.65 30.531 302.7 27.982 302.98 25.423 302.44 24.281 301.66 23.362 301.12 22.23 300.14 21.511 299.14 20.609 298.16 19.901 296.96 19.396 295.52 18.908 294.13 19.013 292.73 18.918 291.32 19.013 289.93 19.122 288.78 19.203 287.37 19.098 286.19 18.993 284.78 18.708 286.31 17.417 288.36 16.688 290.44 16.349 292.51 16 294.59 15.65 296.41 14.942 297.7 13.471 298.48 11.464 298.4 10.108 298.08 8.956 298.01 7.983 298.41 6.979 299.8 7.074 301.23 7.359 302.65 7.454 304.05 7.549 305.44 7.454 307.08 7.539 308.5 7.624 310.12 7.508" fill="url(#ian_symbols_ae9ed6b251e5d4a47da2a2cc21b7d133)" clip-rule="evenodd" fill-rule="evenodd"/>
 <linearGradient id="ian_symbols_fca59a23af5a967409ae14300932bf3b" y2="5.1182" gradientUnits="userSpaceOnUse" x2="343.07" y1="97.235" x1="343.07">
  <stop stop-color="#009A49" offset="0"/>
  <stop stop-color="#80C343" offset="1"/>
 </linearGradient>
 <polygon points="327.22 5.118 327.84 7.423 329.17 9.674 330.94 11.694 332.72 13.525 334.24 15.376 334.61 17.301 333.82 19.122 331.15 21.078 330.06 22.125 329.45 23.338 329.3 24.515 329.14 25.708 329.96 27.22 330.99 28.711 332.02 30.002 333.04 31.291 334.3 32.582 335.55 33.66 336.8 34.931 338.04 36.03 339.01 36.348 340.21 36.843 341.2 37.565 342.39 38.06 343.35 38.389 344.54 38.684 345.47 38.623 346.6 38.145 348.56 36.253 349.58 34.033 349.87 31.664 350.17 29.104 351.53 28.616 352.65 27.952 353.76 27.284 354.88 26.62 355.76 25.772 356.38 24.745 356.78 23.742 356.92 22.559 355.21 18.189 356.29 16.942 357.4 15.884 358.72 15.006 360.06 13.938 361.14 12.881 361.99 11.644 362.6 10.427 362.96 8.84 369.25 11.908 370.58 17.491 370.97 23.118 370.92 28.796 370.61 34.487 367.28 40.006 364.9 45.846 362.98 51.853 361.29 57.636 359.61 63.622 357.48 69.643 354.84 75.3 351.05 80.853 348.94 80.809 346.34 80.608 343.54 80.408 340.47 80.036 337.66 79.656 335.07 79.446 332.95 79.212 331.79 79.097 331.6 79.89 331.45 81.073 331.74 82.025 332.5 82.554 335.62 83.707 337.18 86.141 338.31 88.794 339.64 91.235 339.79 93.384 338.76 95.012 336.96 96.323 335.17 97.235 334.18 96.513 332.97 95.825 331.56 95.53 330.12 95.246 328.48 94.971 327.06 94.876 325.41 94.602 324 94.503 322.89 92.052 321.1 89.818 319.32 87.598 319.12 84.879 319.9 82.669 321.12 80.239 321.2 78.08 319.22 76.463 318.99 73.151 319.22 69.819 319.91 66.446 320.84 63.243 321.77 59.86 322.71 56.663 323.65 53.48 324.12 50.118 326.14 45.867 326.29 41.162 325.9 35.915 325.32 30.871 324.26 28.986 323.19 27.115 322.12 25.423 321.08 23.932 319.81 22.46 318.55 20.993 317.49 19.312 316.22 17.84 316.24 14.891 315.58 12.203 315.17 9.698 315.7 7.105 317.31 6.8 318.68 6.512 320.06 6.217 321.43 5.932 322.82 5.624 324.19 5.339 325.58 5.233 327.22 5.118" fill="url(#ian_symbols_fca59a23af5a967409ae14300932bf3b)" clip-rule="evenodd" fill-rule="evenodd"/>
 <linearGradient id="ian_symbols_3bdaf54467d1fe448dcb7d364c3db77f" y2="21.786" gradientUnits="userSpaceOnUse" x2="236.78" y1="91.5" x1="236.78">
  <stop stop-color="#009A49" offset="0"/>
  <stop stop-color="#80C343" offset="1"/>
 </linearGradient>
 <polygon points="267.34 42.809 269.16 48.541 269.82 54.558 269.29 60.47 267.83 66.046 265.66 71.659 262.55 76.981 259.14 81.73 255.26 86.096 254.38 86.944 253.73 87.578 252.86 88.422 252.2 89.049 251.31 89.703 250.4 89.968 249.25 90.232 247.86 90.337 245.1 90.92 242.31 91.31 239.76 91.5 237.18 91.29 234.37 91.1 231.78 90.707 228.95 90.307 226.12 89.927 224.39 88.486 224.22 86.161 224.76 83.771 225.07 81.602 223.92 75.415 222.78 69.25 221.2 63.297 218.69 57.605 216.08 53.694 213.74 50.341 211.22 47.778 209.21 45.772 207.23 44.151 205.74 42.894 204.51 41.996 203.75 41.277 205.07 40.199 206.16 38.948 207.25 37.701 208.32 36.653 209.64 35.375 210.96 34.308 212.3 33.43 214.1 32.531 215.85 34.159 217.93 36.941 220.27 40.494 222.88 44.216 225.48 48.141 228.3 51.663 230.84 54.402 233.05 55.999 234.89 55.68 236.68 54.771 238 53.5 239.31 52.243 239.72 51.619 240.39 50.985 241.3 50.541 242.2 50.077 244.08 50.328 245.51 50.816 246.94 51.111 248.77 50.592 250.26 48.711 251.99 46.65 252.52 44.46 251.44 42.196 250.82 40.081 249.97 37.989 248.9 36.114 247.86 34.423 246.55 32.762 245.07 31.484 243.35 30.247 241.18 29.23 239.51 28.755 238.13 29.06 236.53 29.559 234.9 29.664 235.92 27.454 237.18 25.603 238.92 23.911 240.2 22.061 244.14 21.786 248.69 23.223 253.08 26.026 257.08 29.664 260.86 33.504 263.93 37.386 266.26 40.545 267.34 42.809" fill="url(#ian_symbols_3bdaf54467d1fe448dcb7d364c3db77f)" clip-rule="evenodd" fill-rule="evenodd"/>
 <linearGradient id="ian_symbols_a4f7b28e222e63c4059474046266c5a5" y2="16.975" gradientUnits="userSpaceOnUse" x2="393.63" y1="97.528" x1="379.43">
  <stop stop-color="#009A49" offset="0"/>
  <stop stop-color="#80C343" offset="1"/>
 </linearGradient>
 <polygon points="382.76 15.057 382.51 21.318 382.51 27.782 381.54 33.904 378.88 39.182 378.26 40.199 377.88 41.402 377.5 42.599 377.33 43.592 378.15 45.294 379.19 46.785 380.47 48.267 381.95 49.524 383.65 50.572 385.36 51.619 387.3 52.477 389.2 53.111 390.85 53.185 392.48 53.27 393.88 53.165 395.26 52.877 396.65 52.582 397.76 52.118 399.12 51.429 400.21 50.372 401.04 48.755 401.39 47.155 401.25 45.209 400.9 43.487 400.76 41.731 401.12 40.145 402.18 38.694 404.21 37.575 406.02 36.867 407.6 35.969 408.92 34.897 410 33.65 410.83 32.223 411.67 30.786 412.02 29.199 412.36 27.613 413.33 27.942 414.08 28.66 414.62 29.792 414.71 30.965 414.51 34.688 414.32 38.613 413.87 42.175 413.43 45.907 412.5 49.294 411.58 52.687 410.16 55.724 408.28 58.789 406.81 61.042 405.11 63.317 403.15 65.219 401.18 67.114 398.96 69.025 397.01 70.941 395.05 72.835 393.1 74.931 392.09 77.151 391.78 79.317 391.25 81.707 390.22 83.737 389.17 85.368 387.88 87.029 386.6 88.676 385.32 90.337 383.81 92.008 382.28 93.479 380.76 94.971 379.22 96.442 376.2 96.652 373.39 96.462 371.01 95.849 368.4 95.056 366.2 93.849 363.77 92.652 361.6 91.438 359.39 90.032 357.9 85.442 357.58 80.968 358.22 76.622 359.3 72.442 360.65 68.246 361.98 64.036 363.31 59.836 364.19 55.67 365.69 50.677 367.69 45.846 369.69 41.202 371.92 36.548 373.93 31.918 375.47 27.104 376.72 21.932 377.03 16.444 378.39 15.949 379.77 15.65 381.16 15.366 382.76 15.057" fill="url(#ian_symbols_a4f7b28e222e63c4059474046266c5a5)" clip-rule="evenodd" fill-rule="evenodd"/>
 <linearGradient id="ian_symbols_e43e35eb9e78d384e99a1c982d103cf1" y2="41.891" gradientUnits="userSpaceOnUse" x2="191.26" y1="108.02" x1="191.26">
  <stop stop-color="#009A49" offset="0"/>
  <stop stop-color="#80C343" offset="1"/>
 </linearGradient>
 <polygon points="219.66 64.775 220.04 66.7 220.5 69.798 220.78 73.883 220.63 78.398 219.8 83.147 218.3 88.147 215.59 92.632 211.9 96.618 210.51 96.906 209.13 97.201 207.51 97.316 205.89 97.625 204.53 98.11 203.42 98.777 202.31 99.635 201.92 100.84 201.84 102.79 201.23 104.22 200.13 105.07 198.54 105.77 196.73 106.49 194.88 106.8 193.28 107.31 191.7 108.02 190.06 107.95 188.4 107.67 186.77 107.59 185.11 107.31 183.69 107.02 182.02 106.55 180.59 106.06 179.17 105.59 177.12 103.2 177.63 100.61 179.08 97.964 179.59 95.191 180.58 89.449 181.08 83.357 180.89 77.51 180.26 71.883 179.59 68.995 178.45 65.951 177.05 62.724 174.95 59.551 172.4 56.399 169.38 53.5 165.9 50.422 161.74 47.589 162.86 46.914 164.21 46.426 165.34 45.961 166.72 45.474 168.08 44.979 169.44 44.5 170.82 44.016 172.17 43.518 172.28 44.884 172.61 46.416 173.21 48.141 173.81 50.053 174.92 52.507 176.5 55.141 178.59 58.124 181.16 61.646 182.4 62.544 183.58 62.66 184.96 62.544 186.09 62.08 187.46 61.402 188.82 60.917 190.42 60.409 192.04 60.1 193.45 60.388 195.11 60.853 197.01 61.107 198.87 61.168 200.49 60.863 201.81 59.795 202.62 58.165 202.67 55.426 201.85 53.924 200.11 52.297 198.37 50.846 196.17 49.429 194.22 48.212 192.52 47.155 191.3 46.457 190.81 46.301 190.95 44.924 191.54 43.507 192.17 42.291 192.36 41.891 197.59 43.083 202.4 45.083 206.3 47.548 210.02 50.413 213.04 53.714 215.62 57.246 217.76 61.012 219.66 64.775" fill="url(#ian_symbols_e43e35eb9e78d384e99a1c982d103cf1)" clip-rule="evenodd" fill-rule="evenodd"/>
 <linearGradient id="ian_symbols_57bd78af43de3af451f3eb4dd4c7fa70" y2="48.711" gradientUnits="userSpaceOnUse" x2="148.14" y1="109.6" x1="148.14">
  <stop stop-color="#009A49" offset="0"/>
  <stop stop-color="#80C343" offset="1"/>
 </linearGradient>
 <polygon points="172.59 62.459 176.62 73.11 177.73 82.225 176.87 89.913 175.41 95.489 174.42 98.1 172.96 100.35 170.77 102.46 168.55 104.19 165.87 105.76 163.14 106.92 160.18 107.92 157.43 108.51 155.14 109.04 152.59 109.43 150.27 109.6 147.93 109.37 145.59 109.34 143.23 108.93 140.64 108.72 138.06 108.51 136.37 107.65 134.45 107 133.19 105.73 133.5 103.55 134.81 98.957 135.18 94.252 135.31 89.544 134.48 84.51 133.44 79.7 131.93 74.931 129.99 70.571 127.83 66.416 126.81 65.314 125.57 64.226 124.08 63.168 122.87 62.28 121.62 61.192 120.38 60.1 119.35 58.812 118.56 57.511 118.73 56.504 119.36 55.69 120.02 55.046 120.9 54.402 122.05 54.124 123.19 53.649 124.33 53.375 125.23 52.921 126.94 53.979 128.66 55.016 129.93 56.494 130.96 57.975 131.78 59.487 132.82 61.182 133.64 62.883 134.45 64.385 135.24 65.697 136.23 66.416 137.43 66.91 138.84 67.009 140.25 67.104 141.64 66.999 143.25 66.89 144.89 66.765 146.71 66.056 148.5 65.134 149.81 63.687 150.38 61.887 150.74 60.293 150.61 58.538 149.79 56.843 148.52 55.375 147.53 54.653 146.3 53.958 145.1 53.27 144.12 52.551 143.13 51.843 142.36 50.921 142.29 49.938 142.45 48.755 145.24 48.755 145.94 48.711 147.6 48.985 150.42 49.365 154 50.287 158.08 51.948 162.67 54.368 167.61 57.934 172.59 62.459" fill="url(#ian_symbols_57bd78af43de3af451f3eb4dd4c7fa70)" clip-rule="evenodd" fill-rule="evenodd"/>
 <linearGradient id="ian_symbols_7756d9fcfebd7214dd713eaa63eaf490" y2="33.835" gradientUnits="userSpaceOnUse" x2="430.42" y1="95.544" x1="419.54">
  <stop stop-color="#009A49" offset="0"/>
  <stop stop-color="#80C343" offset="1"/>
 </linearGradient>
 <polygon points="428.03 34.518 426.65 35.006 425.08 35.704 423.5 36.402 422.4 37.447 422.77 42.704 422.66 47.602 421.1 52.009 417.86 55.575 417.25 56.982 416.66 58.398 416.29 59.975 416.89 61.697 417.93 62.999 418.92 63.897 420.13 64.595 421.56 65.083 423 65.558 424.66 65.843 426.29 65.917 428.19 66.171 430.22 65.442 431.8 64.544 433.13 63.473 434.2 62.226 435.27 60.978 436.11 59.751 437.21 58.494 438.52 57.226 439.94 57.521 441.34 57.605 442.95 57.311 444.31 56.822 446.1 55.511 447.66 54.422 448.94 52.972 450 51.324 451.68 51.989 452.47 53.3 452.83 55.046 453.62 56.348 455.41 58.568 455.82 61.087 455.32 63.856 454.33 66.266 452.79 67.558 451.45 68.625 449.9 69.704 448.34 70.805 446.56 71.914 445 72.992 443.69 74.263 442.15 75.341 439.43 76.717 436.48 77.9 433.76 79.073 430.8 80.059 427.8 80.673 424.82 81.263 421.56 81.507 418.54 81.517 417.59 81.401 416.63 80.873 415.93 80.937 415.29 81.75 415.32 82.141 415.36 82.924 415.44 83.896 415.26 84.689 414.43 86.117 413.35 87.378 412.26 88.422 411.16 89.469 410.06 90.337 408.49 91.225 407.15 92.103 405.34 92.835 403.69 92.75 402.24 91.873 401.01 90.984 399.8 90.476 390.62 89.375 390.73 87.608 391.55 85.981 392.83 84.32 393.65 82.713 394.53 78.737 396.6 75.256 399.2 72.147 402.25 69.195 405.32 66.436 408.14 63.487 410.48 60.206 412.08 56.368 413.27 53.365 414.23 50.352 415.18 47.358 415.89 44.375 416.85 41.372 417.8 38.369 418.77 35.565 419.73 32.552 420.92 33.06 422.11 33.175 423.27 33.091 424.43 33.016 425.35 32.941 426.3 33.271 427.27 33.599 428.03 34.518" fill="url(#ian_symbols_7756d9fcfebd7214dd713eaa63eaf490)" clip-rule="evenodd" fill-rule="evenodd"/>
 <linearGradient id="ian_symbols_f26061d17a4056946545f26b4bfbfcac" y2="55.436" gradientUnits="userSpaceOnUse" x2="103.96" y1="113.41" x1="103.96">
  <stop stop-color="#009A49" offset="0"/>
  <stop stop-color="#80C343" offset="1"/>
 </linearGradient>
 <polygon points="122.28 63.876 125.35 67.578 128.2 71.669 130.13 75.839 131.63 80.429 132.42 85.059 132.53 89.744 131.68 94.303 130.15 98.903 129.58 100.71 128.52 102.34 127.48 104.18 126.19 105.63 124.67 107.31 123.14 108.79 121.38 110.29 119.6 111.58 116.6 111.99 113.61 112.59 110.6 113 107.6 113.42 104.81 113.42 101.96 112.84 99.55 111.84 97.34 110.23 96.327 109.13 95.31 108.03 94.089 107.32 92.412 106.67 92.307 105.11 92.899 103.71 93.754 102.47 94.336 100.87 94.452 95.974 93.882 91.12 92.866 86.7 91.153 82.32 88.784 78.588 85.968 75.066 82.239 71.809 78.083 69.175 77.521 67.853 76.5 66.744 75.49 65.653 75.385 64.09 76.717 63.222 78.059 62.344 79.405 61.656 80.757 60.968 82.133 60.483 83.713 59.785 85.076 59.287 86.679 58.789 85.676 61.202 84.459 63.643 83.94 66.215 84.818 68.7 85.846 69.988 86.876 71.48 87.927 73.175 88.744 74.676 90.001 75.954 91.238 77.046 92.94 77.9 95.035 77.934 96.421 77.646 97.541 76.981 98.188 76.154 99.059 75.51 100.24 75.615 101.43 75.924 102.61 76.039 103.78 76.154 104.95 76.263 106.12 76.165 107.26 75.9 108.42 75.615 109 74.208 110.09 72.771 111.15 71.514 112.23 70.266 113.08 69.025 113.45 67.643 113.57 66.066 112.97 64.354 111.16 61.741 108.85 58.778 106.82 56.378 106.04 55.459 109.08 55.436 111.45 55.86 113.62 56.876 115.34 58.124 116.84 59.571 118.6 61.212 120.32 62.66 122.28 63.876" fill="url(#ian_symbols_f26061d17a4056946545f26b4bfbfcac)" clip-rule="evenodd" fill-rule="evenodd"/>
 <linearGradient id="ian_symbols_e251d7ae8faf5664c55e50bf5eacb623" y2="64.1" gradientUnits="userSpaceOnUse" x2="64.344" y1="111.06" x1="64.344">
  <stop stop-color="#009A49" offset="0"/>
  <stop stop-color="#80C343" offset="1"/>
 </linearGradient>
 <polygon points="77.554 71.564 80.978 73.859 83.96 76.378 86.51 79.337 88.584 82.31 90.222 85.717 90.975 89.567 91.249 93.469 90.625 97.815 90.55 100.15 89.747 101.97 88.465 103.63 86.71 105.12 84.703 106.44 82.449 107.58 80.174 108.52 77.913 109.47 76.303 109.78 74.666 109.69 72.805 109.83 71.174 109.93 69.758 109.66 68.595 109.73 66.968 109.86 65.591 110.15 64.205 110.44 62.599 110.75 60.992 111.06 59.121 111 58.653 107.7 58.178 104.42 57.48 101.15 56.548 97.879 55.396 94.842 53.578 92.232 51.314 89.852 48.385 88.096 46.697 87.439 45.043 86.974 43.571 86.096 41.9 85.442 40.664 84.554 39.436 83.652 38.199 82.764 37.439 81.846 38.199 79.446 39.46 77.392 40.962 75.53 42.958 74.219 43.975 75.32 44.769 76.429 45.551 77.741 46.334 78.863 47.337 79.964 48.575 80.853 49.792 81.547 51.439 81.825 52.605 81.741 53.514 81.486 54.433 81.222 55.334 80.754 55.988 80.13 56.876 79.476 57.527 78.853 58.422 78.198 59.88 79.073 61.307 79.561 62.747 80.036 64.628 80.3 66.236 79.795 67.113 78.947 67.717 77.741 68.33 76.517 68.405 74.168 68.012 72.042 66.944 70.158 65.433 68.51 64.459 67.992 63.232 67.104 62.483 66.372 62.399 65.208 63.795 65.114 64.938 64.839 66.076 64.555 67.459 64.266 68.625 64.171 69.792 64.1 70.955 64.215 72.392 64.69 73.459 66.575 74.75 68.232 76.025 69.907 77.554 71.564" fill="url(#ian_symbols_e251d7ae8faf5664c55e50bf5eacb623)" clip-rule="evenodd" fill-rule="evenodd"/>
 <linearGradient id="ian_symbols_032829fb2213e87435896bf59d8d65ef" y2="91.37" gradientUnits="userSpaceOnUse" x2="19.801" y1="117.38" x1="50.795">
  <stop stop-color="#009A49" offset="0"/>
  <stop stop-color="#80C343" offset="1"/>
 </linearGradient>
 <polygon points="37.206 85.188 41.087 87.249 44.748 89.534 47.972 92.052 50.975 94.951 53.534 98.089 55.175 101.51 56.148 105.34 56.206 109.45 55.165 111.28 53.911 113.32 52.646 115.17 51.134 116.84 49.368 118.34 47.592 119.64 45.307 120.38 42.768 120.56 42.389 118.65 41.331 116.96 39.85 115.88 37.925 114.84 35.769 114.02 33.609 113.4 31.24 112.78 29.084 111.95 26.968 111.72 24.853 111.68 22.739 111.42 20.613 111 18.715 110.75 16.807 110.1 14.911 109.64 13.209 108.79 12.661 107.46 12.312 105.92 12.447 104.54 12.817 103.15 13.766 103.47 14.722 103.8 15.928 104.3 17.111 104.59 18.539 104.89 19.725 105.2 21.121 105.09 22.494 104.6 25.996 101.42 27.203 101.92 28.396 102.42 29.603 102.93 30.83 103.62 32.236 103.92 33.43 104.22 34.816 104.12 36.189 103.63 37.688 101.76 38.243 99.581 38.294 97.235 37.904 94.906 36.677 94.018 35.016 93.744 33.365 93.479 31.484 93.215 30.057 92.917 28.606 92.242 27.836 91.13 27.487 89.588 26.714 88.476 25.494 87.968 24.514 87.259 24.209 86.117 25.806 85.602 27.602 84.689 29.623 83.568 31.664 82.639 33.494 82.12 35.131 82.205 36.358 83.103 37.206 85.188" fill="url(#ian_symbols_032829fb2213e87435896bf59d8d65ef)" clip-rule="evenodd" fill-rule="evenodd"/>
 <linearGradient id="ian_symbols_0d892648ca8810b42d01ea40c444c84b" y2="82.948" gradientUnits="userSpaceOnUse" x2="460.84" y1="82.948" x1="419.29">
  <stop stop-color="#1C7F40" offset=".1517"/>
  <stop stop-color="#5AAF46" offset=".5899"/>
 </linearGradient>
 <path fill="url(#ian_symbols_0d892648ca8810b42d01ea40c444c84b)" clip-rule="evenodd" d="m452.8 71.1c1.773-1.227 3.325-4.685 5.874-3.607 2.424 1.027 2.19 5.691 2.14 7.763-.055 2.054.04 4.315-.045 6.379-.305 7.549-5.922 14.014-13.39 15.536-1.976.4-4.023.484-5.996.952-1.512.346-2.823.644-4.399.39-.834-.139-1.692-.529-2.431-.837-1.492-.59-2.963-1.373-4.288-2.281-1.752-1.197-3.173-2.918-4.766-4.305-1.278-1.102-2.719-2.051-3.946-3.196-.265-.251-2.823-4.132-2.146-4.176 1.281-.095 2.604-.125 3.881-.285.055 0 4.082-.464 4.082-.464l4.051-.837 4.03-1.003 3.807-1.366 3.542-1.702 3.322-2.041c2.17-1.916 4.37-3.279 6.71-4.92z" fill-rule="evenodd"/>
 <linearGradient id="ian_symbols_2dd8942fc60a07044db552374496ecb5" y2="111.44" gradientUnits="userSpaceOnUse" x2="7.8464" y1="115.99" x1="13.267">
  <stop stop-color="#009A49" offset="0"/>
  <stop stop-color="#80C343" offset="1"/>
 </linearGradient>
 <polygon points="14.986 113.94 14.542 114.37 13.833 114.22 12.888 114.09 12.183 113.94 11.254 114.01 10.322 114.08 9.159 114.15 8.25 114.43 7.318 114.49 7.471 113.3 8.071 111.89 8.681 110.68 9.528 109.44 10.766 110.54 12.023 111.81 13.274 112.89 14.986 113.94" fill="url(#ian_symbols_2dd8942fc60a07044db552374496ecb5)" clip-rule="evenodd" fill-rule="evenodd"/>
 <linearGradient id="ian_symbols_5828afa3ee5b26242df17005bce77803" y2="119.53" gradientUnits="userSpaceOnUse" x2="14.149" y1="135.47" x1="33.138">
  <stop stop-color="#009A49" offset="0"/>
  <stop stop-color="#80C343" offset="1"/>
 </linearGradient>
 <polygon points="29.962 114.44 31.664 115.49 33.823 116.31 35.734 116.97 37.894 117.78 39.375 118.85 40.633 120.13 40.982 121.86 40.433 123.86 40.748 125.02 40.579 126 39.938 127.02 39.545 127.83 38.223 128.91 36.636 129.59 35.036 130.11 33.44 130.61 31.83 130.93 30.474 131.6 29.623 132.84 29.508 134.42 29.633 136.17 29.284 137.76 28.691 139.37 27.857 140.79 27.043 139.08 25.762 137.61 24.28 136.54 22.362 135.7 20.474 135.44 18.593 135.18 16.949 135.1 15.314 135.03 13.464 135.16 11.843 135.48 10.003 135.8 7.915 136.15 8.945 134.12 9.739 132.1 10.511 129.89 10.101 127.38 11.952 127.07 13.539 126.36 14.871 125.48 15.959 124.42 17.057 123.38 17.65 121.96 18.26 120.74 18.867 119.34 19.257 118.33 18.962 117.37 18.413 116.25 17.864 115.11 19.501 115.18 21.142 115.26 22.539 115.16 24.162 115.04 25.562 114.95 26.958 114.84 28.576 114.73 29.962 114.44" fill="url(#ian_symbols_5828afa3ee5b26242df17005bce77803)" clip-rule="evenodd" fill-rule="evenodd"/>
 <polygon points="459.63 74.652 460.24 76.348 461.08 77.849 461.44 79.551 461.08 81.317 460.21 82.764 458.84 84.066 457.23 85.398 455.13 86.415 453.71 87.039 452.28 87.324 450.83 87.418 449.37 87.344 447.9 87.113 446.66 86.849 445.17 86.425 443.93 86.181 442.39 84.903 441.09 83.781 440.51 82.259 440.38 80.354 441.04 79.615 442.22 79.022 443.16 78.608 444.6 78.324 445.8 78.239 447.02 78.334 448.25 78.588 449.49 78.842 450.38 77.741 451.24 76.293 452.36 74.832 453.72 73.69 454.88 72.741 456.32 72.463 458.06 73.036 459.63 74.652" clip-rule="evenodd" fill-rule="evenodd"/>
 <polygon points="400.18 99.062 399.31 100.1 398.23 101.34 397.38 102.38 396.05 103.45 394.97 104.51 393.61 105.2 392 105.5 390.38 105.62 391.34 102.82 391.37 99.876 391.86 96.917 393.79 94.622 398.96 95.045 400.18 99.062" fill="#A7A9AC" clip-rule="evenodd" fill-rule="evenodd"/>
 <polygon points="331.61 102.95 331.27 104.74 330.69 106.54 329.87 108.16 328.83 109.8 327.52 111.26 325.99 112.55 324.18 113.46 322.14 114.19 316.1 114.62 317.65 113.53 318.98 112.45 320.07 111.39 321.15 110.15 321.99 108.92 322.36 107.52 322.73 106.13 322.61 104.37 323.24 103.36 324.13 102.71 325.04 102.64 326.46 102.73 327.64 103.04 329.06 103.34 330.45 103.24 331.61 102.95" fill="#A7A9AC" clip-rule="evenodd" fill-rule="evenodd"/>
 <polygon points="375.54 103.74 375.94 106.06 375.37 108.05 374.09 109.7 372.58 111.38 371.7 112.03 370.57 112.51 369.68 113.15 368.54 113.62 367.41 114.1 366.26 114.38 365.11 114.65 363.72 114.95 365.67 112.65 367.09 109.82 367.59 106.86 366.68 103.79 367.07 102.96 368.28 103.47 369.23 103.6 370.4 103.72 371.34 103.84 372.5 103.76 373.45 103.9 374.61 103.8 375.54 103.74" fill="#A7A9AC" clip-rule="evenodd" fill-rule="evenodd"/>
 <path fill="#fff" clip-rule="evenodd" d="m496.41 71.47c.118-2.739-6.472.613-7.265 1.396 2.136 1.396 5.309-.159 7.288-1.227" fill-rule="evenodd"/>
 <path fill="#A7A9AC" clip-rule="evenodd" d="m442.68 102.34c.104 1.417-4.021 3.257-5.152 3.746-1.543.664-5.309 1.997-6.746.708.604-.488 1.471-.644 2.169-.963.739-.349 1.808-1.037 2.346-1.681 1.133-1.356.465-2.4 2.55-2 .43.08 4.83.13 4.83.18z" fill-rule="evenodd"/>
</svg>
