<?xml version="1.0" encoding="iso-8859-1"?>
<!-- Generator: Adobe Illustrator 19.0.0, SVG Export Plug-In . SVG Version: 6.00 Build 0)  -->
<svg xmlns="http://www.w3.org/2000/svg" xmlns:xlink="http://www.w3.org/1999/xlink" version="1.1" id="Layer_1" x="0px" y="0px" viewBox="0 0 512 512" style="enable-background:new 0 0 512 512;" xml:space="preserve" width="512px" height="512px">
<g>
	<g>
		<path d="M216.695,0c-27.866,0-50.535,22.669-50.535,50.535s22.669,50.535,50.535,50.535s50.535-22.669,50.535-50.535    S244.561,0,216.695,0z" fill="#404940"/>
	</g>
</g>
<g>
	<g>
		<path d="M309.907,107.82c-5.862-4.392-12.837-6.712-20.162-6.712c-27.748,0-31.062,20.341-61.43,81.077L164.8,245.699    c-3.615,3.616-6.136,7.88-7.761,12.401c-3.327-0.34-6.782,0.276-9.917,2.026c-15.968,8.932-25.882,25.838-25.882,44.119v190.909    c0,9.305,7.54,16.845,16.845,16.845c9.305,0,16.845-7.54,16.845-16.845V304.246c0-5.604,2.886-10.718,7.475-13.841    c0.785,0.987,1.484,2.023,2.395,2.936c6.566,6.566,15.149,9.849,23.739,9.869c0.021,0.347,0.081,0.685,0.081,1.037v33.69    c0,9.305,7.54,16.845,16.845,16.845c9.305,0,16.845-7.54,16.845-16.845v-33.69c0-9.41-1.875-13.164-4.51-16.228    c16.441-16.307,64.046-63.578,66.91-68.255l18.085-29.545l12.069,32.473c5.653,15.194,8.516,30.949,8.516,46.828v207.754    c0,18.578,15.112,33.69,33.69,33.69c18.578,0,33.69-15.112,33.69-33.69V269.519C390.76,206.241,360.53,145.786,309.907,107.82z" fill="#404940"/>
	</g>
</g>
<g>
</g>
<g>
</g>
<g>
</g>
<g>
</g>
<g>
</g>
<g>
</g>
<g>
</g>
<g>
</g>
<g>
</g>
<g>
</g>
<g>
</g>
<g>
</g>
<g>
</g>
<g>
</g>
<g>
</g>
</svg>
