<?xml version="1.0"?>
<svg xmlns="http://www.w3.org/2000/svg" height="512px" version="1.1" viewBox="-368 0 1085 1085.0007" width="512px">
<g id="surface1">
<path d="M 232.632812 910.523438 C 232.632812 942.617188 206.613281 968.636719 174.519531 968.636719 C 142.414062 968.636719 116.398438 942.617188 116.398438 910.523438 C 116.398438 878.425781 142.414062 852.398438 174.519531 852.398438 C 206.613281 852.398438 232.632812 878.425781 232.632812 910.523438 Z M 232.632812 910.523438 " style=" fill-rule:nonzero;fill-opacity:1;" stroke="#404940" fill="#404940"/>
<path d="M 279.128906 771.277344 C 274.246094 767.609375 271.382812 761.871094 271.382812 755.777344 L 271.382812 96.863281 C 271.382812 43.371094 228.007812 0 174.519531 0 C 121.019531 0 77.648438 43.371094 77.648438 96.863281 L 77.648438 174.359375 L 116.398438 174.359375 L 116.398438 213.101562 L 77.648438 213.101562 L 77.648438 271.21875 L 116.398438 271.21875 L 116.398438 309.964844 L 77.648438 309.964844 L 77.648438 368.085938 L 116.398438 368.085938 L 116.398438 406.832031 L 77.648438 406.832031 L 77.648438 464.949219 L 116.398438 464.949219 L 116.398438 503.691406 L 77.648438 503.691406 L 77.648438 561.8125 L 116.398438 561.8125 L 116.398438 600.554688 L 77.648438 600.554688 L 77.648438 658.679688 L 116.398438 658.679688 L 116.398438 697.417969 L 77.648438 697.417969 L 77.648438 755.816406 C 77.648438 761.910156 74.769531 767.652344 69.890625 771.304688 C 18.730469 809.320312 -7.417969 872.375 1.839844 935.457031 C 13.421875 1013.496094 75.703125 1074.195312 154.019531 1083.753906 C 232.339844 1093.136719 307.1875 1048.75 336.503906 975.527344 C 365.828125 902.296875 342.289062 818.527344 279.128906 771.277344 Z M 174.519531 1007.386719 C 124.746094 1007.433594 83.039062 969.765625 78.039062 920.253906 C 73.039062 870.742188 106.375 825.503906 155.144531 815.597656 L 155.144531 135.605469 L 193.886719 135.605469 L 193.886719 815.597656 C 242.648438 825.503906 275.988281 870.742188 270.988281 920.253906 C 265.976562 969.765625 224.269531 1007.433594 174.519531 1007.386719 Z M 174.519531 1007.386719 " style=" fill-rule:nonzero;fill-opacity:1;" stroke="#404940" fill="#404940"/>
</g>
</svg>
